<?xml version="1.0" standalone="no"?>
<!DOCTYPE svg PUBLIC "-//W3C//DTD SVG 20010904//EN"
 "http://www.w3.org/TR/2001/REC-SVG-20010904/DTD/svg10.dtd">
<svg version="1.0" xmlns="http://www.w3.org/2000/svg"
 width="480.000000pt" height="960.000000pt" viewBox="0 0 480.000000 960.000000"
 preserveAspectRatio="xMidYMid meet">

<g transform="translate(0.000000,960.000000) scale(0.100000,-0.100000)"
fill="#0000ff" stroke="none">
<path d="M0 4800 l0 -4800 2400 0 2400 0 0 4800 0 4800 -2400 0 -2400 0 0
-4800z m3896 4725 c4 -8 -1 -26 -10 -39 -14 -23 -14 -25 2 -29 10 -3 6 -5 -10
-6 -33 -1 -34 3 -8 36 20 26 18 55 -3 34 -17 -17 -31 -13 -17 4 16 19 39 19
46 0z m70 0 c4 -8 -1 -26 -10 -39 -14 -23 -14 -25 2 -29 10 -3 6 -5 -10 -6
-33 -1 -34 3 -8 36 20 26 18 55 -3 34 -17 -17 -31 -13 -17 4 16 19 39 19 46 0z
m99 -30 c0 -34 -4 -40 -22 -43 -20 -3 -22 1 -21 35 1 47 5 55 26 51 13 -2 17
-14 17 -43z m-2780 -80 l0 -110 -110 0 -110 0 -3 113 -3 113 113 -3 113 -3 0
-110z m-379 95 c13 -13 6 -109 -8 -127 -5 -7 -26 -13 -46 -15 -32 -3 -37 -7
-40 -30 -2 -19 -8 -25 -18 -21 -11 4 -14 15 -10 42 19 137 20 131 -10 131 -22
0 -25 2 -14 15 15 18 130 21 146 5z m2159 -30 c7 0 16 8 18 18 3 9 5 -1 5 -23
0 -22 -2 -32 -5 -22 -2 9 -11 17 -18 17 -7 0 -16 -8 -18 -17 -3 -10 -5 0 -5
22 0 22 2 32 5 23 2 -10 11 -18 18 -18z m-185 0 c0 -13 5 -18 15 -14 12 5 15
-3 15 -41 0 -36 -3 -46 -14 -42 -8 3 -16 -2 -19 -14 -4 -15 -14 -19 -46 -19
-35 0 -41 3 -41 21 0 15 -5 19 -15 15 -12 -4 -15 4 -15 39 0 33 4 45 15 45 8
0 15 7 15 15 0 11 12 15 45 15 38 0 45 -3 45 -20z m256 -16 c-7 -7 -14 -8 -22
0 -7 7 -8 14 0 22 7 7 14 8 22 0 7 -7 8 -14 0 -22z m272 -51 c-2 -70 -6 -88
-18 -88 -12 0 -16 18 -18 88 -3 82 -2 87 18 87 20 0 21 -5 18 -87z m270 0 c-2
-70 -6 -88 -18 -88 -12 0 -16 18 -18 88 -3 82 -2 87 18 87 20 0 21 -5 18 -87z
m-3488 2 c0 -51 -3 -65 -15 -65 -11 0 -15 12 -15 50 0 40 -3 48 -15 44 -8 -4
-15 -1 -15 5 0 10 32 29 53 30 4 1 7 -28 7 -64z m100 0 c0 -51 -3 -65 -15 -65
-11 0 -15 12 -15 50 0 40 -3 48 -15 44 -8 -4 -15 -1 -15 5 0 10 32 29 53 30 4
1 7 -28 7 -64z m160 26 c0 -54 19 -56 52 -4 15 24 32 43 38 43 5 0 10 -18 10
-39 0 -22 6 -42 13 -45 10 -5 10 -7 0 -12 -7 -3 -13 -12 -13 -20 0 -8 -4 -14
-10 -14 -5 0 -10 7 -10 15 0 11 -11 15 -40 15 -29 0 -40 -4 -40 -15 0 -8 -4
-15 -10 -15 -5 0 -10 6 -10 14 0 9 -12 16 -30 18 l-31 3 30 48 c17 26 35 47
41 47 5 0 10 -18 10 -39z m2895 -47 c0 -55 -3 -69 -15 -69 -11 0 -16 15 -18
59 -3 66 2 90 21 83 8 -2 12 -26 12 -73z m270 0 c0 -55 -3 -69 -15 -69 -11 0
-16 15 -18 59 -3 66 2 90 21 83 8 -2 12 -26 12 -73z m-1100 36 c0 -18 -6 -26
-23 -28 -13 -2 -25 3 -28 12 -10 26 4 48 28 44 17 -2 23 -10 23 -28z m1925 20
c0 -5 -11 -10 -25 -10 -16 0 -25 -6 -25 -15 0 -8 3 -14 8 -14 20 3 32 -3 42
-21 24 -44 -38 -83 -70 -45 -16 19 -5 34 12 17 18 -18 38 -14 38 8 0 15 -7 20
-25 20 -22 0 -25 4 -25 35 0 33 2 35 35 35 19 0 35 -4 35 -10z m100 0 c0 -5
-11 -10 -25 -10 -16 0 -25 -6 -25 -15 0 -8 3 -14 8 -14 20 3 32 -3 42 -21 24
-44 -38 -83 -70 -45 -16 19 -5 34 12 17 18 -18 38 -14 38 8 0 15 -7 20 -25 20
-22 0 -25 4 -25 35 0 33 2 35 35 35 19 0 35 -4 35 -10z m65 -20 c0 -16 -6 -26
-18 -28 -19 -4 -32 20 -23 44 9 25 41 13 41 -16z m-1855 -5 c0 -14 -4 -25 -10
-25 -5 0 -10 11 -10 25 0 14 5 25 10 25 6 0 10 -11 10 -25z m190 0 c0 -14 -4
-25 -10 -25 -5 0 -10 11 -10 25 0 14 5 25 10 25 6 0 10 -11 10 -25z m1684 -37
c-16 -24 -29 -45 -31 -47 -2 -2 -6 -2 -9 1 -3 3 9 30 27 59 18 29 35 47 37 41
2 -6 -9 -30 -24 -54z m-4264 42 c0 -5 -7 -10 -15 -10 -8 0 -15 5 -15 10 0 6 7
10 15 10 8 0 15 -4 15 -10z m2938 -69 c-4 -48 -32 -50 -36 -3 -5 49 4 68 24
51 10 -8 14 -25 12 -48z m270 0 c-4 -48 -32 -50 -36 -3 -5 49 4 68 24 51 10
-8 14 -25 12 -48z m-488 13 c0 -21 -4 -33 -10 -29 -5 3 -10 19 -10 36 0 16 5
29 10 29 6 0 10 -16 10 -36z m1129 27 c8 -6 11 -17 6 -32 -6 -20 -3 -18 17 8
12 18 31 33 41 33 14 0 17 -9 17 -45 l0 -45 -60 0 -60 0 0 45 c0 45 10 54 39
36z m-1089 -42 c0 -16 -4 -29 -10 -29 -5 0 -10 16 -10 36 0 21 4 33 10 29 6
-3 10 -19 10 -36z m756 22 c13 12 24 18 24 12 0 -6 -7 -16 -15 -23 -14 -12
-14 -15 1 -31 10 -11 15 -21 12 -24 -3 -3 -11 1 -18 10 -16 20 -27 19 -33 -2
-3 -10 -5 5 -4 32 0 28 2 39 4 27 l5 -24 24 23z m90 7 c5 -7 9 -26 9 -43 0
-25 -4 -31 -27 -33 -27 -3 -28 -2 -28 42 0 38 3 46 19 46 10 0 23 -6 27 -12z
m39 -52 c-22 -52 -29 -40 -8 14 9 23 19 38 20 33 2 -5 -4 -26 -12 -47z m664
40 c15 -18 3 -46 -20 -46 -22 0 -34 22 -25 45 7 19 30 19 45 1z m-1434 -26 c0
-27 -22 -39 -31 -16 -8 22 3 49 19 43 6 -2 12 -14 12 -27z m270 0 c0 -27 -22
-39 -31 -16 -8 22 3 49 19 43 6 -2 12 -14 12 -27z m570 20 c3 -5 -2 -10 -12
-11 -15 0 -14 -2 5 -11 12 -6 21 -16 19 -22 -5 -14 -47 -21 -47 -7 0 6 8 8 18
5 15 -5 15 -4 -2 10 -10 8 -16 22 -13 31 7 17 23 20 32 5z m-3715 -10 c0 -5
-7 -10 -15 -10 -8 0 -15 5 -15 10 0 6 7 10 15 10 8 0 15 -4 15 -10z m2220
-4380 l0 -70 -34 0 c-36 0 -46 12 -46 55 0 27 24 49 45 41 11 -4 15 1 15 19 0
14 5 25 10 25 6 0 10 -30 10 -70z m-750 11 c0 -31 5 -53 15 -61 26 -21 45 5
45 61 0 27 5 49 10 49 13 0 13 -86 0 -111 -12 -22 -59 -26 -78 -7 -14 14 -16
118 -2 118 6 0 10 -22 10 -49z m180 34 c7 -9 9 -19 5 -23 -4 -4 -10 -1 -12 6
-6 16 -53 16 -53 -1 0 -7 15 -20 33 -28 24 -10 32 -20 32 -39 0 -22 -5 -25
-38 -28 -27 -2 -39 1 -43 13 -9 23 3 30 21 12 17 -17 45 -13 45 7 0 6 -13 17
-30 23 -16 6 -33 18 -36 27 -14 38 49 63 76 31z m110 0 c7 -9 9 -19 5 -23 -4
-4 -10 -1 -12 6 -6 16 -53 16 -53 -1 0 -7 15 -20 33 -28 24 -10 32 -20 32 -39
0 -22 -5 -25 -38 -28 -27 -2 -39 1 -43 13 -9 23 3 30 21 12 17 -17 45 -13 45
7 0 6 -13 17 -30 23 -16 6 -33 18 -36 27 -14 38 49 63 76 31z m114 -7 c35 -50
8 -108 -51 -108 l-33 0 0 65 0 65 34 0 c25 0 39 -7 50 -22z m886 12 c0 -5 -4
-10 -10 -10 -5 0 -10 5 -10 10 0 6 5 10 10 10 6 0 10 -4 10 -10z m-740 -35 c7
-9 9 -19 5 -23 -4 -4 -10 -1 -12 6 -3 6 -13 12 -24 12 -14 0 -19 -7 -19 -29 0
-33 16 -49 33 -32 17 17 31 13 17 -4 -16 -20 -56 -19 -64 1 -23 60 27 114 64
69z m96 -10 c22 -34 6 -75 -29 -75 -30 0 -47 18 -47 50 0 52 48 68 76 25z
m192 13 c7 -7 12 -20 12 -30 0 -13 -8 -18 -30 -18 -16 0 -30 -4 -30 -10 0 -11
13 -14 44 -10 11 1 15 -3 12 -9 -11 -17 -63 -13 -70 5 -16 42 1 84 34 84 9 0
21 -5 28 -12z m122 2 c0 -4 -7 -10 -15 -14 -9 -3 -15 -19 -15 -41 0 -19 -4
-35 -10 -35 -5 0 -10 22 -10 49 0 45 2 49 25 49 14 0 25 -4 25 -8z m30 -28 c0
-43 6 -53 26 -45 9 3 14 20 14 44 0 21 5 39 10 39 6 0 10 -23 10 -51 l0 -50
-37 3 c-38 3 -38 3 -41 51 -2 28 1 47 7 47 6 0 11 -17 11 -38z m148 26 c14
-12 16 -88 2 -88 -5 0 -10 18 -10 41 0 33 -3 40 -17 37 -13 -2 -19 -14 -21
-41 -5 -54 -22 -45 -22 12 0 46 1 49 28 49 15 0 33 -5 40 -10z m100 0 c14 -12
16 -88 2 -88 -5 0 -10 18 -10 41 0 33 -3 40 -17 37 -13 -2 -19 -14 -21 -41 -5
-54 -22 -45 -22 12 0 46 1 49 28 49 15 0 33 -5 40 -10z m52 -38 c0 -27 -4 -50
-10 -50 -5 0 -10 23 -10 50 0 28 5 50 10 50 6 0 10 -22 10 -50z m88 38 c14
-12 16 -88 2 -88 -5 0 -10 18 -10 41 0 33 -3 40 -17 37 -13 -2 -19 -14 -21
-41 -5 -54 -22 -45 -22 12 0 46 1 49 28 49 15 0 33 -5 40 -10z m112 -48 c0
-38 -5 -62 -15 -70 -16 -14 -47 -10 -52 6 -2 7 6 10 22 7 15 -3 25 -1 25 6 0
6 -11 11 -24 11 -25 0 -36 16 -36 54 0 30 17 45 51 44 28 -1 29 -2 29 -58z
m40 -30 c0 -5 -4 -10 -10 -10 -5 0 -10 5 -10 10 0 6 5 10 10 10 6 0 10 -4 10
-10z m40 0 c0 -5 -4 -10 -10 -10 -5 0 -10 5 -10 10 0 6 5 10 10 10 6 0 10 -4
10 -10z m40 0 c0 -5 -4 -10 -10 -10 -5 0 -10 5 -10 10 0 6 5 10 10 10 6 0 10
-4 10 -10z m-2232 -184 c10 -23 8 -25 -35 -40 -26 -9 -48 -15 -49 -13 -1 1 -5
14 -9 28 -6 23 -3 28 22 37 44 16 59 14 71 -12z m1278 -4267 c56 -52 69 -119
34 -177 -50 -82 -151 -95 -218 -28 -34 34 -37 41 -37 96 0 52 4 63 30 90 40
42 61 50 118 46 33 -2 55 -10 73 -27z m2038 12 c10 -16 -5 -41 -24 -41 -19 0
-34 25 -24 41 3 5 14 9 24 9 10 0 21 -4 24 -9z m-3294 -10 c0 -4 -21 -11 -47
-14 -63 -7 -83 -32 -83 -102 0 -46 4 -56 28 -75 22 -18 37 -21 79 -18 69 6 91
26 95 87 4 61 23 51 23 -13 -1 -40 -6 -53 -29 -72 -23 -20 -38 -24 -96 -24
-58 0 -73 4 -96 24 -24 20 -28 32 -32 89 -4 63 -3 68 26 97 26 25 38 30 81 30
28 0 51 -4 51 -9z m2290 -6 c0 -8 -6 -15 -14 -15 -17 0 -28 14 -19 24 12 12
33 6 33 -9z m168 -19 c24 -23 27 -34 27 -92 0 -61 -2 -67 -33 -95 -30 -27 -37
-29 -118 -29 -64 0 -85 3 -82 13 3 8 35 14 92 17 103 6 116 16 116 94 0 69
-26 96 -92 96 -38 0 -48 3 -48 16 0 14 9 16 56 12 43 -4 61 -11 82 -32z
m-2372 13 c7 -12 -15 -31 -28 -23 -4 3 -8 12 -8 20 0 17 26 19 36 3z m3304
-36 c0 -7 -18 -16 -40 -19 l-40 -7 0 -83 c0 -68 -3 -84 -15 -84 -11 0 -15 11
-15 40 0 22 -4 40 -10 40 -5 0 -10 -18 -10 -40 0 -29 -4 -40 -15 -40 -12 0
-15 16 -15 84 l0 83 -40 7 c-22 3 -40 12 -40 19 0 9 31 12 120 12 89 0 120 -3
120 -12z"/>
<path d="M4035 9519 c-10 -15 3 -25 16 -12 7 7 7 13 1 17 -6 3 -14 1 -17 -5z"/>
<path d="M4030 9476 c0 -9 7 -16 16 -16 17 0 14 22 -4 28 -7 2 -12 -3 -12 -12z"/>
<path d="M1160 9495 c-9 -10 -9 -15 -1 -15 6 0 11 -17 11 -40 0 -40 -12 -52
-27 -27 -4 6 -8 18 -8 24 0 7 -4 13 -10 12 -11 0 -7 -42 5 -47 4 -1 16 -9 26
-16 15 -12 16 -16 5 -29 -15 -18 -7 -37 15 -37 13 0 14 8 9 39 -6 35 -4 41 17
52 26 13 38 28 38 47 0 21 -28 13 -32 -10 -2 -12 -9 -24 -17 -26 -11 -4 -13 4
-8 37 6 45 -4 59 -23 36z"/>
<path d="M826 9458 c-12 -47 -8 -60 22 -56 23 3 27 8 30 41 3 33 1 37 -21 37
-17 0 -27 -7 -31 -22z"/>
<path d="M2810 9425 c0 -52 1 -55 25 -55 24 0 25 3 25 55 0 52 -1 55 -25 55
-24 0 -25 -3 -25 -55z"/>
<path d="M412 9420 c-10 -17 -10 -20 3 -20 8 0 15 9 15 20 0 11 -1 20 -3 20
-1 0 -8 -9 -15 -20z"/>
<path d="M512 9420 c-10 -17 -10 -20 3 -20 8 0 15 9 15 20 0 11 -1 20 -3 20
-1 0 -8 -9 -15 -20z"/>
<path d="M4580 9436 c0 -9 5 -16 10 -16 6 0 10 4 10 9 0 6 -4 13 -10 16 -5 3
-10 -1 -10 -9z"/>
<path d="M3930 9370 c0 -5 7 -10 15 -10 8 0 15 5 15 10 0 6 -7 10 -15 10 -8 0
-15 -4 -15 -10z"/>
<path d="M3930 9335 c0 -8 7 -15 15 -15 8 0 15 7 15 15 0 8 -7 15 -15 15 -8 0
-15 -7 -15 -15z"/>
<path d="M4640 9354 c0 -8 5 -12 10 -9 6 3 10 10 10 16 0 5 -4 9 -10 9 -5 0
-10 -7 -10 -16z"/>
<path d="M2522 4958 c2 -21 8 -33 18 -33 10 0 16 12 18 33 3 27 0 32 -18 32
-18 0 -21 -5 -18 -32z"/>
<path d="M2170 4976 c0 -42 2 -46 25 -46 48 0 45 81 -4 88 -19 3 -21 -1 -21
-42z"/>
<path d="M2424 4976 c-8 -21 -1 -49 13 -53 15 -5 35 31 27 51 -8 20 -33 21
-40 2z"/>
<path d="M2625 4980 c-3 -5 3 -10 15 -10 12 0 18 5 15 10 -3 6 -10 10 -15 10
-5 0 -12 -4 -15 -10z"/>
<path d="M3262 4958 c2 -21 8 -33 18 -33 10 0 16 12 18 33 3 27 0 32 -18 32
-18 0 -21 -5 -18 -32z"/>
<path d="M2319 441 c-25 -25 -29 -37 -29 -81 0 -44 4 -56 29 -81 25 -25 37
-29 81 -29 44 0 56 4 81 29 25 25 29 37 29 81 0 44 -4 56 -29 81 -25 25 -37
29 -81 29 -44 0 -56 -4 -81 -29z"/>
</g>
</svg>
